<?xml version="1.0" encoding="utf-8"?>
<!-- Generator: Adobe Illustrator 23.0.6, SVG Export Plug-In . SVG Version: 6.00 Build 0)  -->
<svg version="1.1" id="Layer_1" xmlns="http://www.w3.org/2000/svg" xmlns:xlink="http://www.w3.org/1999/xlink" x="0px" y="0px"
	 viewBox="0 0 128 128" style="enable-background:new 0 0 128 128;" xml:space="preserve">
<style type="text/css">
	.st0{fill:#F9DEC9;}
</style>
<g>
	<rect x="14.5" y="48.02" class="st0" width="99.11" height="79.48"/>
	<path class="st0" d="M113.11,48.52V127H15V48.52H113.11 M114.11,47.52H14V128h100.11V47.52L114.11,47.52z"/>
</g>
<g>
	<g>
		<path class="st0" d="M35.95,52c-0.04-0.29-0.09-0.58-0.13-0.87c0.01,0.09,0.07,0.64,0.02,0.1c-0.05-0.51-0.12-1.02-0.17-1.54
			c-0.11-1.17-0.19-2.35-0.24-3.53c-0.08-2.13-0.05-4.27,0.12-6.4c0.04-0.51,0.09-1.02,0.14-1.53c0.03-0.29,0.06-0.58,0.1-0.87
			c-0.03,0.2-0.12,0.8,0.02-0.11c0.17-1.08,0.37-2.16,0.61-3.23c0.47-2.07,1.1-4.09,1.86-6.07c0.32-0.84,0.13-0.32,0.05-0.14
			c0.09-0.2,0.18-0.4,0.27-0.6c0.19-0.43,0.39-0.85,0.6-1.27c0.45-0.89,0.93-1.77,1.45-2.62c0.46-0.75,0.94-1.48,1.45-2.19
			c0.15-0.2,0.3-0.4,0.44-0.61c-0.03,0.05-0.45,0.56-0.13,0.17c0.32-0.39,0.63-0.78,0.96-1.16c1.22-1.42,2.56-2.73,4-3.92
			c0.14-0.12,0.29-0.23,0.43-0.35c-0.67,0.56-0.18,0.13-0.03,0.02c0.35-0.25,0.7-0.51,1.06-0.75c0.77-0.52,1.56-1.01,2.37-1.46
			c0.43-0.24,0.87-0.47,1.31-0.68c0.17-0.08,1.29-0.6,0.81-0.39c-0.5,0.22,0.07-0.03,0.15-0.06c0.23-0.09,0.46-0.18,0.69-0.26
			c0.46-0.17,0.93-0.32,1.41-0.47c0.83-0.25,1.67-0.46,2.53-0.63c0.32-0.06,0.63-0.12,0.95-0.17c-0.01,0,0.77-0.1,0.35-0.05
			c-0.47,0.06,0.51-0.05,0.6-0.06c0.4-0.04,0.8-0.07,1.2-0.1c4.33-0.29,8.9-0.46,13.22,0.1c-0.78-0.1-0.04,0,0.1,0.03
			c0.28,0.06,0.57,0.1,0.85,0.16c0.49,0.1,0.99,0.23,1.47,0.36c0.49,0.14,0.96,0.31,1.44,0.48c-0.08-0.03-0.55-0.26-0.07-0.04
			c0.3,0.14,0.59,0.28,0.88,0.43c0.78,0.41,1.52,0.89,2.22,1.42c-0.76-0.57,0.22,0.22,0.39,0.38c0.42,0.38,0.82,0.78,1.21,1.2
			c0.3,0.33,0.58,0.67,0.87,1c0.33,0.38-0.08-0.11-0.12-0.16c0.15,0.21,0.3,0.41,0.45,0.62c0.55,0.79,1.04,1.61,1.49,2.45
			c0.21,0.39,0.41,0.79,0.6,1.2c0.11,0.23,0.21,0.46,0.32,0.7c-0.03-0.06-0.26-0.68-0.09-0.19c0.4,1.1,0.79,2.19,1.11,3.32
			c0.33,1.19,0.6,2.4,0.83,3.61c0.13,0.68,0.24,1.37,0.35,2.06c0,0.01,0.11,0.76,0.05,0.32c-0.07-0.46,0.09,0.69,0.1,0.79
			c0.31,2.57,0.5,5.16,0.72,7.74c0.46,5.49,0.92,10.98,1.38,16.46c0.2,2.34,1.93,4.62,4.5,4.5c2.27-0.1,4.71-1.99,4.5-4.5
			c-0.44-5.24-0.88-10.48-1.32-15.73c-0.44-5.22-0.78-10.51-1.93-15.63c-2.1-9.36-7.84-18.33-17.49-21.1
			c-4.8-1.38-9.96-1.22-14.9-1.11c-5,0.11-9.85,0.74-14.47,2.69c-7.92,3.34-14.48,9.81-18.36,17.46
			c-5.21,10.29-5.93,21.92-4.25,33.17c0.35,2.34,3.42,3.83,5.54,3.14C35.35,56.71,36.32,54.5,35.95,52L35.95,52z"/>
	</g>
</g>
</svg>
